{
  "source": "C:\\Users\\Peter\\Desktop\\stuff\\MIUN\\quantitative_research\\video_compression\\videos\\BVI-HD\\BVI-HD_CDVL_videos\\ORIG\\FishAndRock_1920x1080_30fps.mp4",
  "output": "C:\\Users\\Peter\\Desktop\\stuff\\MIUN\\quantitative_research\\video_compression\\compressed_videos\\BVI-HD\\vp9\\2.5\\FishAndRock_1920x1080_30fps_vp9.webm",
  "codec": "vp9",
  "ok": "Input #0, mov,mp4,m4a,3gp,3g2,mj2, from 'C:\\Users\\Peter\\Desktop\\stuff\\MIUN\\quantitative_research\\video_compression\\videos\\BVI-HD\\BVI-HD_CDVL_videos\\ORIG\\FishAndRock_1920x1080_30fps.mp4':\n  Metadata:\n    major_brand     : isom\n    minor_version   : 512\n    compatible_brands: isomiso2avc1mp41\n    encoder         : Lavf54.28.101\n  Duration: 00:00:05.00, start: 0.000000, bitrate: 251564 kb/s\n  Stream #0:0[0x1](und): Video: h264 (High 4:4:4 Predictive) (avc1 / 0x31637661), yuv420p(progressive), 1920x1080, 251561 kb/s, 30 fps, 30 tbr, 30 tbn (default)\n    Metadata:\n      handler_name    : VideoHandler\n      vendor_id       : [0][0][0][0]\n[out#0/webm @ 0000028435979240] Codec AVOption b:a (set bitrate (in bits/s)) has not been used for any stream. The most likely reason is either wrong type (e.g. a video option with no video streams) or that it is a private option of some decoder which was not actually used for any stream.\nStream mapping:\n  Stream #0:0 -> #0:0 (h264 (native) -> vp9 (libvpx-vp9))\nPress [q] to stop, [?] for help\n[libvpx-vp9 @ 00000284364104c0] v1.15.2-100-g40561f514\nOutput #0, webm, to 'C:\\Users\\Peter\\Desktop\\stuff\\MIUN\\quantitative_research\\video_compression\\compressed_videos\\BVI-HD\\vp9\\2.5\\FishAndRock_1920x1080_30fps_vp9.webm':\n  Metadata:\n    major_brand     : isom\n    minor_version   : 512\n    compatible_brands: isomiso2avc1mp41\n    encoder         : Lavf62.3.100\n  Stream #0:0(und): Video: vp9, yuv420p(tv, progressive), 1920x1080, q=2-31, 2500 kb/s, 30 fps, 1k tbn (default)\n    Metadata:\n      encoder         : Lavc62.11.100 libvpx-vp9\n      handler_name    : VideoHandler\n      vendor_id       : [0][0][0][0]\n    Side data:\n      cpb: bitrate max/min/avg: 0/0/0 buffer size: 2500000 vbv_delay: N/A\nframe=    0 fps=0.0 q=0.0 size=       0KiB time=N/A bitrate=N/A speed=N/A elapsed=0:00:00.52    \nframe=    4 fps=3.7 q=46.0 size=       1KiB time=00:00:00.13 bitrate=  38.0kbits/s speed=0.122x elapsed=0:00:01.09    \nframe=   10 fps=6.2 q=43.0 size=       1KiB time=00:00:00.33 bitrate=  15.2kbits/s speed=0.207x elapsed=0:00:01.61    \nframe=   15 fps=7.0 q=41.0 size=       1KiB time=00:00:00.50 bitrate=  10.1kbits/s speed=0.234x elapsed=0:00:02.13    \nframe=   20 fps=7.5 q=42.0 size=       1KiB time=00:00:00.66 bitrate=   7.6kbits/s speed=0.25x elapsed=0:00:02.66    \nframe=   25 fps=7.8 q=38.0 size=       1KiB time=00:00:00.83 bitrate=   6.1kbits/s speed=0.26x elapsed=0:00:03.19    \nframe=   30 fps=8.0 q=38.0 size=       1KiB time=00:00:01.00 bitrate=   5.1kbits/s speed=0.268x elapsed=0:00:03.73    \nframe=   35 fps=8.2 q=36.0 size=       1KiB time=00:00:01.16 bitrate=   4.3kbits/s speed=0.273x elapsed=0:00:04.27    \nframe=   40 fps=8.3 q=38.0 size=       1KiB time=00:00:01.33 bitrate=   3.8kbits/s speed=0.278x elapsed=0:00:04.80    \nframe=   45 fps=8.5 q=34.0 size=       1KiB time=00:00:01.50 bitrate=   3.4kbits/s speed=0.282x elapsed=0:00:05.32    \nframe=   50 fps=8.5 q=35.0 size=       1KiB time=00:00:01.66 bitrate=   3.0kbits/s speed=0.285x elapsed=0:00:05.85    \nframe=   55 fps=8.6 q=36.0 size=       1KiB time=00:00:01.83 bitrate=   2.8kbits/s speed=0.286x elapsed=0:00:06.40    \nframe=   60 fps=8.6 q=37.0 size=       1KiB time=00:00:02.00 bitrate=   2.5kbits/s speed=0.288x elapsed=0:00:06.95    \nframe=   64 fps=8.6 q=34.0 size=       1KiB time=00:00:02.13 bitrate=   2.4kbits/s speed=0.285x elapsed=0:00:07.48    \nframe=   69 fps=8.6 q=36.0 size=       1KiB time=00:00:02.30 bitrate=   2.2kbits/s speed=0.287x elapsed=0:00:08.00    \nframe=   73 fps=8.6 q=29.0 size=       1KiB time=00:00:02.43 bitrate=   2.1kbits/s speed=0.286x elapsed=0:00:08.50    \nframe=   78 fps=8.6 q=35.0 size=       1KiB time=00:00:02.60 bitrate=   2.0kbits/s speed=0.288x elapsed=0:00:09.03    \nframe=   82 fps=8.6 q=34.0 size=       1KiB time=00:00:02.73 bitrate=   1.9kbits/s speed=0.285x elapsed=0:00:09.58    \nframe=   87 fps=8.6 q=35.0 size=       1KiB time=00:00:02.90 bitrate=   1.7kbits/s speed=0.287x elapsed=0:00:10.11    \nframe=   91 fps=8.6 q=27.0 size=       1KiB time=00:00:03.03 bitrate=   1.7kbits/s speed=0.285x elapsed=0:00:10.64    \nframe=   96 fps=8.6 q=35.0 size=       1KiB time=00:00:03.20 bitrate=   1.6kbits/s speed=0.287x elapsed=0:00:11.15    \nframe=  101 fps=8.6 q=35.0 size=       1KiB time=00:00:03.36 bitrate=   1.5kbits/s speed=0.288x elapsed=0:00:11.69    \nframe=  105 fps=8.6 q=35.0 size=       1KiB time=00:00:03.50 bitrate=   1.4kbits/s speed=0.286x elapsed=0:00:12.22    \nframe=  110 fps=8.6 q=37.0 size=       1KiB time=00:00:03.66 bitrate=   1.4kbits/s speed=0.288x elapsed=0:00:12.74    \nframe=  114 fps=8.6 q=36.0 size=       1KiB time=00:00:03.80 bitrate=   1.3kbits/s speed=0.286x elapsed=0:00:13.28    \nframe=  119 fps=8.6 q=36.0 size=       1KiB time=00:00:03.96 bitrate=   1.3kbits/s speed=0.288x elapsed=0:00:13.78    \nframe=  123 fps=8.6 q=35.0 size=       1KiB time=00:00:04.10 bitrate=   1.2kbits/s speed=0.287x elapsed=0:00:14.31    \nframe=  126 fps=8.5 q=36.0 size=       1KiB time=00:00:04.20 bitrate=   1.2kbits/s speed=0.283x elapsed=0:00:14.81    \nframe=  126 fps=8.2 q=36.0 size=       1KiB time=00:00:04.20 bitrate=   1.2kbits/s speed=0.274x elapsed=0:00:15.33    \nframe=  126 fps=7.9 q=36.0 size=       1KiB time=00:00:04.20 bitrate=   1.2kbits/s speed=0.265x elapsed=0:00:15.85    \nframe=  126 fps=7.7 q=36.0 size=       1KiB time=00:00:04.20 bitrate=   1.2kbits/s speed=0.256x elapsed=0:00:16.38    \nframe=  126 fps=7.4 q=36.0 size=       1KiB time=00:00:04.20 bitrate=   1.2kbits/s speed=0.248x elapsed=0:00:16.92    \n[out#0/webm @ 0000028435979240] video:1665KiB audio:0KiB subtitle:0KiB other streams:0KiB global headers:0KiB muxing overhead: 0.103518%\nframe=  150 fps=8.7 q=35.0 Lsize=    1667KiB time=00:00:05.00 bitrate=2730.9kbits/s speed=0.289x elapsed=0:00:17.32    \n",
  "seconds": 17.577635765075684,
  "probe_out": {}
}